<svg width="491" height="853" viewBox="0 0 491 853" fill="none" xmlns="http://www.w3.org/2000/svg">
<path d="M472.248 19.704C484.246 31.7058 490.986 47.9815 490.986 64.952C490.986 81.9225 484.246 98.1982 472.248 110.2L155.448 427L472.248 743.8C483.906 755.871 490.357 772.037 490.211 788.818C490.065 805.598 483.335 821.65 471.468 833.516C459.602 845.383 443.55 852.113 426.77 852.259C409.989 852.405 393.823 845.954 381.752 834.296L19.704 472.248C7.70585 460.246 0.965668 443.971 0.965668 427C0.965668 410.029 7.70585 393.754 19.704 381.752L381.752 19.704C393.754 7.70585 410.029 0.965668 427 0.965668C443.971 0.965668 460.246 7.70585 472.248 19.704V19.704Z" fill="black"/>
</svg>
